<svg width="107" height="80" viewBox="0 0 107 80" fill="none" xmlns="http://www.w3.org/2000/svg">
<path d="M81.7593 49.3982C94.3775 42.2307 109.747 32.9874 106.524 18.8875C106.445 18.5741 106.367 18.2608 106.288 17.9475C101.296 -2.4191 76.2954 2.35922 59.9822 8.03836C43.669 13.7175 27.7489 -10.3699 10.7281 6.08003C-5.15269 21.4725 27.6309 80.2613 81.7593 49.3982Z" fill="url(#paint0_linear)"/>
<path d="M71.1035 32.9354C57.7304 47.2227 46.4376 43.035 43.2181 38.8474C39.9987 34.6597 38.3642 34.7583 38.3642 34.7583C38.3642 34.7583 39.0081 31.4081 44.2087 31.9008C49.4094 32.3935 61.0489 31.6545 83.2383 14.5097C83.2383 14.5097 64.7636 35.8421 56.4921 37.1723C48.2206 38.5025 41.3855 31.6052 22.0688 11.8L50.4 31.6545" stroke="#99C5CC" stroke-miterlimit="10" stroke-linecap="round" stroke-linejoin="round"/>
<path d="M46.7803 78.6737C46.7803 78.6737 48.9292 62.0348 46.7803 52.6671C44.6313 43.2993 35.8115 43.0763 26.6335 40.0429C17.4555 37.0095 6.03904 33.2178 1.65153 38.1247C-0.0945252 40.0875 0.845655 42.2287 2.63648 44.1023C2.63648 44.1023 1.65153 47.4925 7.91941 60.4289C8.90436 62.4363 11.1429 63.2838 14.1873 63.2838C14.1873 63.2838 15.4409 66.5403 22.4698 65.202C22.4698 65.202 16.8735 76.0418 17.7689 79.9228C18.6643 83.8037 45.079 85.588 46.7803 78.6737Z" fill="#FFDEE1"/>
<path d="M58.1969 78.6737C58.1969 78.6737 56.0479 62.0348 58.1969 52.6671C60.3459 43.2993 69.1657 43.0763 78.3437 40.0429C87.5217 37.0095 98.9382 33.2178 103.326 38.1247C105.072 40.0875 104.132 42.2287 102.341 44.1023C102.341 44.1023 103.326 47.4925 97.0578 60.4289C96.0728 62.4363 93.8343 63.2838 90.7899 63.2838C90.7899 63.2838 89.5363 66.5403 82.5074 65.202C82.5074 65.202 88.1037 76.0418 87.2083 79.9228C86.3129 83.8037 59.8534 85.588 58.1969 78.6737Z" fill="#FFDEE1"/>
<path d="M2.63647 44.1471C2.63647 44.1471 4.47207 40.5339 8.72528 44.7716C8.72528 44.7716 11.0981 40.9353 17.0078 47.5374C17.0078 47.5374 19.2464 42.5412 25.8724 49.7678C25.8724 49.7678 29.1407 46.5114 31.8269 49.7678C34.5131 53.0242 36.304 58.9125 39.3484 55.0316" stroke="#1D0E47" stroke-miterlimit="10" stroke-linecap="round" stroke-linejoin="round"/>
<path d="M25.8277 49.8121C25.8277 49.8121 23.0071 53.1578 30.9763 66.228" stroke="#1D0E47" stroke-miterlimit="10" stroke-linecap="round" stroke-linejoin="round"/>
<path d="M17.008 47.5371C17.008 47.5371 14.8591 50.4366 22.5148 65.2912C22.5148 65.2912 24.2161 69.0829 31.0212 66.1834C31.0212 66.1834 34.961 70.6888 40.5574 67.254C46.1537 63.8192 47.7206 57.7524 47.2729 55.2097" stroke="#1D0E47" stroke-miterlimit="10" stroke-linecap="round" stroke-linejoin="round"/>
<path d="M8.72546 44.7715C8.72546 44.7715 6.12876 48.7416 14.1875 63.3732" stroke="#1D0E47" stroke-miterlimit="10" stroke-linecap="round" stroke-linejoin="round"/>
<path d="M96.2518 44.7715C96.2518 44.7715 98.8485 48.7416 90.7898 63.3732" stroke="#1D0E47" stroke-miterlimit="10" stroke-linecap="round" stroke-linejoin="round"/>
<path d="M102.341 44.1469C102.341 44.1469 100.505 40.5336 96.2519 44.7714C96.2519 44.7714 93.879 40.9351 87.9693 47.5371C87.9693 47.5371 85.7308 42.541 79.1047 49.7675C79.1047 49.7675 75.8365 46.5111 73.1502 49.7675C70.464 53.024 68.6732 58.9123 65.6288 55.0313" stroke="#1D0E47" stroke-miterlimit="10" stroke-linecap="round" stroke-linejoin="round"/>
<path d="M79.1048 49.8121C79.1048 49.8121 81.9253 53.1578 73.9562 66.228" stroke="#1D0E47" stroke-miterlimit="10" stroke-linecap="round" stroke-linejoin="round"/>
<path d="M87.9692 47.5371C87.9692 47.5371 90.1181 50.4366 82.4624 65.2912C82.4624 65.2912 80.7611 69.0829 73.956 66.1834C73.956 66.1834 70.0162 70.6888 64.4198 67.254C58.8235 63.8192 57.2566 57.7524 57.7043 55.2097" stroke="#1D0E47" stroke-miterlimit="10" stroke-linecap="round" stroke-linejoin="round"/>
<defs>
<linearGradient id="paint0_linear" x1="56.8358" y1="0.233887" x2="56.8307" y2="66.9907" gradientUnits="userSpaceOnUse">
<stop stop-color="#C7DFE3" stop-opacity="0.8"/>
<stop offset="1" stop-color="#C7DFE3" stop-opacity="0"/>
</linearGradient>
</defs>
</svg>
