<svg width="164" height="96" viewBox="0 0 164 96" fill="none" xmlns="http://www.w3.org/2000/svg">
<path d="M31.6567 80.3186C28.8645 93.3471 26 96 23 96H161C161 96 126.947 94.8764 110.15 80.3186C96.4593 68.4534 93.33 60.239 80.0305 32.8576C67.6176 7.30169 64.5144 0 58.1254 0C49.911 0 47.656 12.778 46.2601 18.2542C42.305 33.7703 34.3953 67.5407 31.6567 80.3186Z" fill="#E25858"/>
<mask id="mask0" mask-type="alpha" maskUnits="userSpaceOnUse" x="0" y="0" width="47" height="96">
<path d="M0 0H47V96H0V0Z" fill="#139C7B"/>
</mask>
<g mask="url(#mask0)">
<path d="M31.4999 75.5C26.9999 92.5 2.73858 96.0161 0 96C51.7203 96.3042 175.683 95.8347 164 95.8347C149.397 95.8347 126.947 94.8764 110.15 80.3186C96.4593 68.4534 93.33 60.239 80.0304 32.8576C67.6176 7.3017 64.5144 0 58.1254 0C49.911 0 47.656 12.778 46.2601 18.2542C42.305 33.7703 34.3132 64.872 31.4999 75.5Z" fill="#139C7B"/>
</g>
<mask id="mask1" mask-type="alpha" maskUnits="userSpaceOnUse" x="0" y="0" width="164" height="96">
<path d="M31 77.5C26.5144 90.9568 2.89051 95.9839 0.0269451 96H164C164 96 126.947 94.8764 110.15 80.3186C96.4593 68.4534 93.33 60.239 80.0305 32.8576C67.6176 7.3017 64.5144 0 58.1254 0C49.911 0 47.6561 12.778 46.2602 18.2542C42.3051 33.7703 35.5 64 31 77.5Z" fill="#F4AE56"/>
</mask>
<g mask="url(#mask1)">
<rect x="47" width="35" height="96" fill="#F4AE56"/>
</g>
</svg>
