<svg width="595" height="526" viewBox="0 0 595 526" fill="none" xmlns="http://www.w3.org/2000/svg">
<mask id="mask0" mask-type="alpha" maskUnits="userSpaceOnUse" x="0" y="0" width="595" height="526">
<rect width="595" height="526" fill="#181A25"/>
</mask>
<g mask="url(#mask0)">
<path d="M362.19 406.231C445.869 454.543 552.868 425.872 601.18 342.194C649.492 258.515 620.822 151.516 537.143 103.204C453.464 54.8916 346.465 83.5621 298.153 167.241C249.841 250.919 278.511 357.919 362.19 406.231Z" fill="url(#paint0_linear)"/>
<path d="M449.667 504.867C585.492 504.867 695.6 394.759 695.6 258.933C695.6 123.108 585.492 13 449.667 13C313.841 13 203.733 123.108 203.733 258.933C203.733 394.759 313.841 504.867 449.667 504.867Z" stroke="#C7DFE3" stroke-width="0.5" stroke-miterlimit="10"/>
<path opacity="0.5" d="M575.013 448.54L453.633 418.393C245.78 463.613 285.447 243.86 120.433 243.86C-44.5799 243.86 -56.5362 490.927 -56.5362 490.927H516.285L575.013 448.54Z" fill="url(#paint1_linear)"/>
<path d="M489.479 266.155L417.285 331.627L373.442 369.185L362.92 340.98C362.92 340.98 380.019 314.674 381.919 288.369C382.357 283.546 382.065 278.723 381.188 274.193C381.188 274.193 368.327 259.725 367.158 239.119C366.428 228.45 374.465 217.197 385.134 207.26C384.549 203.899 384.403 198.784 388.787 198.053C392.149 197.614 396.094 196.007 399.163 194.545C401.94 193.23 404.571 191.769 407.055 190.161C416.116 184.023 424.592 179.2 429.853 176.278C433.361 174.378 440.522 174.816 440.522 174.816L467.412 190.307L489.479 266.155Z" fill="#FFDEE1"/>
<path d="M676.688 505.975C671.719 526.581 647.459 530.088 621.007 527.019C585.203 523.073 545.744 507.582 545.744 507.582C545.744 507.582 542.091 474.992 501.317 431.588C460.543 388.184 426.931 368.162 429.269 318.474C429.853 305.321 434.676 292.461 441.253 280.623C441.253 280.623 449.436 280.769 456.305 277.7C461.274 275.362 465.658 271.416 465.951 264.255C466.243 256.364 462.589 252.856 458.643 251.249C454.113 249.641 449.29 250.518 449.29 250.518C449.29 250.518 458.643 220.559 450.167 197.761C446.806 188.7 440.522 180.808 429.853 176.424C429.853 176.424 440.522 170.724 455.867 169.847C468.289 169.117 483.78 171.309 499.125 182.269C533.468 206.529 535.66 270.539 542.383 293.922C549.252 317.451 564.012 352.233 595.286 376.054C597.332 377.516 599.378 379.269 601.717 381.023C601.863 381.023 601.863 381.169 601.863 381.169C634.306 407.329 687.648 460.524 676.688 505.975Z" fill="#8D90D7"/>
<path d="M362.774 341.126C362.774 341.126 318.347 405.721 302.563 431.589C286.78 457.456 277.719 472.216 282.98 505.975C288.241 539.734 570.442 517.082 570.442 517.082C570.442 517.082 547.205 440.649 546.182 436.85C545.159 433.05 429.123 318.474 429.123 318.474C429.123 318.474 371.25 370.209 362.774 341.126Z" fill="#80D2D8"/>
<path opacity="0.5" d="M400.917 427.788C394.133 491.38 407.786 528.042 407.786 528.042L432.484 508.02C432.338 508.167 404.571 447.956 400.917 427.788Z" fill="#6BBDC1"/>
<path d="M449.29 250.372C449.29 250.372 458.643 220.413 450.167 197.614C450.167 197.614 459.812 213.544 458.643 251.102C454.113 249.495 449.29 250.372 449.29 250.372Z" fill="#787AC2"/>
<path d="M621.007 527.02C585.203 523.074 545.744 507.583 545.744 507.583C545.744 507.583 542.091 474.993 501.317 431.589C460.543 388.184 426.931 368.163 429.269 318.475C429.853 305.322 434.676 292.461 441.253 280.624C441.253 280.624 449.436 280.77 456.305 277.701C455.574 282.816 451.234 299.973 450.211 305.672C437.643 369.829 577.5 349.335 621.007 527.02Z" fill="#787AC2"/>
<path d="M601.716 381.023C598.794 379.708 543.963 359.062 529.084 283.985C516.075 218.347 508.675 175.424 455.866 169.701C468.288 168.971 483.78 171.163 499.125 182.124C533.468 206.383 535.66 270.393 542.383 293.776C549.251 317.305 564.012 352.087 595.286 375.908C597.332 377.516 599.524 379.123 601.716 381.023Z" fill="#A0A4E3"/>
<path d="M381.188 274.485C381.188 274.485 383.619 277.591 389.718 283.527" stroke="#1D0E47" stroke-width="0.5" stroke-miterlimit="10" stroke-linecap="round" stroke-linejoin="round"/>
<path d="M407.201 199.806C407.201 199.806 410.124 206.529 419.769 208.721" stroke="#1D0E47" stroke-width="0.5" stroke-miterlimit="10" stroke-linecap="round" stroke-linejoin="round"/>
<path d="M390.979 222.751C390.979 222.751 382.941 223.335 377.827 214.567" stroke="#1D0E47" stroke-width="0.5" stroke-miterlimit="10" stroke-linecap="round" stroke-linejoin="round"/>
<path d="M398.725 421.359C398.725 421.359 419.916 486.83 434.676 512.259" stroke="#1D0E47" stroke-width="0.5" stroke-miterlimit="10" stroke-linecap="round" stroke-linejoin="round"/>
<path d="M453.528 263.086L446.659 263.817L447.975 267.763" stroke="#1D0E47" stroke-width="0.5" stroke-miterlimit="10" stroke-linecap="round" stroke-linejoin="round"/>
<path d="M520.273 147.074C520.273 147.074 526.303 135.174 534.712 133.111C534.712 133.111 530.111 139.458 528.841 143.742C527.572 148.026 527.889 149.771 523.129 152.944C523.129 152.944 521.067 156.752 519.004 152.944C516.941 149.136 513.609 150.247 510.119 143.9C509.008 141.996 508.056 140.41 507.263 139.14C507.421 138.982 517.417 141.362 520.273 147.074Z" fill="#C7DFE3"/>
<path d="M566.604 193.563C566.604 193.563 559.464 200.862 547.881 200.544C547.881 200.544 556.608 195.467 557.243 190.231C557.243 190.231 547.881 187.058 545.66 181.504C545.66 181.504 551.689 178.49 553.276 179.283C554.863 180.076 561.368 190.072 573.109 192.77C573.109 192.77 574.696 193.563 574.537 195.308C574.379 197.054 566.604 193.563 566.604 193.563Z" fill="#C7DFE3"/>
<path d="M224.36 104.075C224.36 104.075 227.692 102.329 228.327 95.9825C228.961 89.6359 229.12 81.0679 231.5 76.3079C231.5 76.3079 232.293 81.2265 235.149 85.6692C238.005 90.1119 238.005 93.2852 231.976 105.979C231.976 105.979 239.116 106.931 241.496 108.517C241.496 108.517 232.135 110.104 222.456 108.359C222.456 108.359 220.869 107.883 218.489 108.041C216.109 108.2 219.124 103.916 224.36 104.075Z" fill="#E7F2F4"/>
<path d="M311.151 87.8905C311.151 87.8905 313.531 80.9092 313.372 76.3079C313.372 76.3079 304.963 81.7025 302.107 89.0012C302.107 89.0012 292.111 86.1452 290.842 87.7319C289.572 89.3185 286.24 93.2852 295.443 92.6505C297.664 92.4919 299.568 92.3332 300.996 92.3332C300.996 92.3332 299.251 100.425 301.314 102.488C301.314 102.488 306.391 97.2519 308.295 92.3332C308.136 92.3332 318.291 90.2705 311.151 87.8905Z" fill="#E7F2F4"/>
<path d="M376.204 49.0173C376.204 49.0173 379.853 44.892 380.805 42.8293L382.074 39.9733C382.074 39.9733 374.776 43.7813 369.54 49.0173C369.54 49.0173 366.525 49.9693 364.145 49.0173C361.765 48.0653 361.13 48.224 360.813 50.4453C360.496 52.6667 358.592 53.6187 360.813 53.6187C363.034 53.6187 366.525 53.6187 366.525 53.6187C366.525 53.6187 362.4 60.4413 362.717 63.456C362.717 63.456 370.65 58.22 373.982 53.7773C373.982 53.7773 378.901 53.46 378.584 51.2387C378.266 49.0173 376.204 49.0173 376.204 49.0173Z" fill="#E7F2F4"/>
<path d="M-415 522.407C-348.948 459.597 -203.635 423.171 -53.4549 431.717C33.2232 436.63 140.064 447.526 265.678 468.997C441.816 499.12 600.571 469.21 720.622 428.192C786.442 405.759 878.219 405.225 945.429 426.91C1019.13 450.731 1026.31 489.72 1043 527C1042.77 526.893 -415 522.407 -415 522.407Z" fill="white"/>
</g>
<defs>
<linearGradient id="paint0_linear" x1="537.143" y1="103.204" x2="335.693" y2="452.018" gradientUnits="userSpaceOnUse">
<stop stop-color="#C7DFE3" stop-opacity="0.8"/>
<stop offset="1" stop-color="#C7DFE3" stop-opacity="0"/>
</linearGradient>
<linearGradient id="paint1_linear" x1="186.297" y1="243.067" x2="186.279" y2="566.18" gradientUnits="userSpaceOnUse">
<stop stop-color="#C7DFE3" stop-opacity="0.8"/>
<stop offset="1" stop-color="#C7DFE3" stop-opacity="0"/>
</linearGradient>
</defs>
</svg>
